HIERARCHY
ROOT Pelvis
{
	OFFSET 0.000000 0.000000 0.000000
	CHANNELS 6 Xposition Yposition Zposition Xrotation Yrotation Zrotation
	JOINT LeftUpLeg_virtual
	{
		OFFSET 0.000000 0.000000 0.000000
		CHANNELS 3 Xrotation Yrotation Zrotation
		JOINT LeftUpLeg
		{
			OFFSET 18.735201 -5.666702 -4.541200
			CHANNELS 3 Xrotation Yrotation Zrotation
			JOINT LeftLeg
			{
				OFFSET -0.021200 -31.938179 0.493100
				CHANNELS 3 Xrotation Yrotation Zrotation
				JOINT LeftFoot
				{
					OFFSET 0.021200 -31.938179 -4.336299
					CHANNELS 3 Xrotation Yrotation Zrotation
					JOINT LeftToeBase
					{
						OFFSET 0.943001 -26.722000 15.023500
						CHANNELS 3 Xrotation Yrotation Zrotation
						End Site
						{
							OFFSET 0 0 0
						}
					}
				}
			}
		}
	}
	JOINT RightUpLeg_virtual
	{
		OFFSET 0.000000 0.000000 0.000000
		CHANNELS 3 Xrotation Yrotation Zrotation
		JOINT RightUpLeg
		{
			OFFSET -18.735201 -5.666702 -4.541200
			CHANNELS 3 Xrotation Yrotation Zrotation
			JOINT RightLeg
			{
				OFFSET 0.018946 -31.938133 0.493100
				CHANNELS 3 Xrotation Yrotation Zrotation
				JOINT RightFoot
				{
					OFFSET -0.018946 -31.938126 -4.336299
					CHANNELS 3 Xrotation Yrotation Zrotation
					JOINT RightToeBase
					{
						OFFSET -0.943001 -26.722004 15.023500
						CHANNELS 3 Xrotation Yrotation Zrotation
						End Site
						{
							OFFSET 0 0 0
						}
					}
				}
			}
		}
	}
	JOINT Hips_virtual
	{
		OFFSET 0.000000 0.000000 0.000000
		CHANNELS 3 Xrotation Yrotation Zrotation
		JOINT Hips
		{
			OFFSET -0.000000 -0.000000 -0.000000
			CHANNELS 3 Xrotation Yrotation Zrotation
			JOINT Spine
			{
				OFFSET 0.000000 10.199997 -0.299500
				CHANNELS 3 Xrotation Yrotation Zrotation
				JOINT Spine1
				{
					OFFSET 0.000000 11.900002 -1.516600
					CHANNELS 3 Xrotation Yrotation Zrotation
					JOINT Spine2
					{
						OFFSET 0.000000 13.600006 -2.842500
						CHANNELS 3 Xrotation Yrotation Zrotation
						JOINT Neck_virtual
						{
							OFFSET 0.000000 0.000000 0.000000
							CHANNELS 3 Xrotation Yrotation Zrotation
							JOINT Neck
							{
								OFFSET 0.000000 9.624100 -2.890100
								CHANNELS 3 Xrotation Yrotation Zrotation
								JOINT Head
								{
									OFFSET 0.000000 14.068802 -1.351900
									CHANNELS 3 Xrotation Yrotation Zrotation
									End Site
									{
										OFFSET 0 0 0
									}
								}
							}
						}
						JOINT LeftShoulder_virtual
						{
							OFFSET 0.000000 0.000000 0.000000
							CHANNELS 3 Xrotation Yrotation Zrotation
							JOINT LeftShoulder
							{
								OFFSET 15.263000 10.923401 -0.547700
								CHANNELS 3 Xrotation Yrotation Zrotation
								JOINT LeftArm
								{
									OFFSET 25.438599 -2.830597 -13.032500
									CHANNELS 3 Xrotation Yrotation Zrotation
									JOINT LeftForeArm
									{
										OFFSET 29.960503 0.000000 0.000000
										CHANNELS 3 Xrotation Yrotation Zrotation
										JOINT LeftHand
										{
											OFFSET 27.849251 0.000000 0.000000
											CHANNELS 3 Xrotation Yrotation Zrotation
											End Site
											{
												OFFSET 0 0 0
											}
										}
									}
								}
							}
						}
						JOINT RightShoulder_virtual
						{
							OFFSET 0.000000 0.000000 0.000000
							CHANNELS 3 Xrotation Yrotation Zrotation
							JOINT RightShoulder
							{
								OFFSET -15.263000 10.923401 -0.547700
								CHANNELS 3 Xrotation Yrotation Zrotation
								JOINT RightArm
								{
									OFFSET -25.438599 -2.830597 -13.032500
									CHANNELS 3 Xrotation Yrotation Zrotation
									JOINT RightForeArm
									{
										OFFSET -29.960503 0.000000 0.000000
										CHANNELS 3 Xrotation Yrotation Zrotation
										JOINT RightHand
										{
											OFFSET -27.849251 0.000000 0.000000
											CHANNELS 3 Xrotation Yrotation Zrotation
											End Site
											{
												OFFSET 0 0 0
											}
										}
									}
								}
							}
						}
					}
				}
			}
		}
	}
}
MOTION
Frames: 13
Frame Time: 0.03333333
-9.061979 92.456497 8.761080 0.000000 0.000000 0.000000 -2.698917 -6.260538 -0.692733 -13.691941 3.120897 11.677976 32.520190 -2.780538 -3.300345 -11.821084 7.217376 -7.093776 0.000000 0.000000 0.000000 -3.134940 -5.526191 -0.283290 -18.482229 4.163762 -5.457020 39.063979 -6.103440 0.391091 -9.000690 0.861494 8.039763 0.000000 0.000000 0.000000 -2.866033 -5.558232 -0.336323 -0.718614 -0.066048 -0.092311 2.950760 0.136682 1.929628 0.194850 -2.070710 1.566664 0.000000 0.000000 0.000000 -2.011166 -0.288136 0.624610 1.050053 0.265864 0.466666 0.000000 0.000000 0.000000 -1.724329 -0.687410 0.913476 -3.651602 -17.457690 -11.958549 21.882478 -22.206014 -59.856213 -5.868295 -22.357870 -5.072670 0.000000 0.000000 0.000000 -2.537137 0.023552 0.529966 6.021268 11.139782 9.616550 3.525071 24.644098 55.353847 1.928890 23.434693 12.001916 0.000000 0.000000 0.000000 
-9.058014 92.489876 8.814106 0.000000 0.000000 0.000000 -2.672885 -6.268655 -0.585968 -13.444789 3.067876 11.518934 32.186631 -2.815219 -3.232976 -11.957565 7.079809 -7.217755 0.000000 0.000000 0.000000 -3.125221 -5.528962 -0.290742 -18.282232 4.238301 -5.463396 38.756686 -6.052532 0.330788 -9.268881 1.047268 8.055252 0.000000 0.000000 0.000000 -2.887360 -5.605733 -0.311694 -0.731868 -0.067092 -0.099543 3.014786 0.137960 1.927743 0.186571 -2.029809 1.578018 0.000000 0.000000 0.000000 -1.939702 -0.242538 0.586495 1.042797 0.265668 0.462467 0.000000 0.000000 0.000000 -1.607478 -0.638559 0.875102 -3.685449 -17.370817 -11.961061 21.887594 -22.046257 -59.915587 -5.907729 -22.502388 -5.192724 0.000000 0.000000 0.000000 -2.498324 0.076972 0.498333 6.014412 11.199761 9.455010 3.625154 24.704236 55.376186 1.945167 23.370781 11.919764 0.000000 0.000000 0.000000 
-9.025759 92.553993 8.876799 0.000000 0.000000 0.000000 -2.576775 -6.341968 -0.456562 -13.267900 3.208401 11.342065 31.658425 -2.756463 -3.238468 -11.789217 6.958727 -7.435130 0.000000 0.000000 0.000000 -3.055231 -5.560890 -0.276470 -18.231756 4.401397 -5.400729 38.652081 -5.906125 0.166531 -9.311086 1.440476 7.724544 0.000000 0.000000 0.000000 -2.870399 -5.754764 -0.261834 -0.747300 -0.065122 -0.102101 3.104065 0.261525 1.920049 0.221852 -1.966685 1.611823 0.000000 0.000000 0.000000 -1.882150 -0.162194 0.539484 1.022045 0.268545 0.445892 0.000000 0.000000 0.000000 -1.453283 -0.558798 0.807267 -3.703534 -17.451850 -11.978416 21.734067 -21.853757 -59.913156 -5.984808 -22.898059 -5.422347 0.000000 0.000000 0.000000 -2.416803 0.173271 0.489510 6.094012 11.246792 9.121523 3.572403 24.897086 55.363662 1.974256 23.112271 11.752066 0.000000 0.000000 0.000000 
-8.977739 92.613228 8.900484 0.000000 0.000000 0.000000 -2.448471 -6.505662 -0.322311 -13.322339 3.480266 11.184491 31.255680 -2.579957 -3.247421 -11.334594 6.962020 -7.533867 0.000000 0.000000 0.000000 -2.968888 -5.640640 -0.245269 -18.488468 4.688935 -5.293909 38.883386 -5.649048 -0.115753 -8.915227 1.998155 7.100521 0.000000 0.000000 0.000000 -2.830605 -5.982704 -0.191975 -0.757634 -0.063854 -0.096201 3.235822 0.500548 1.878980 0.317072 -1.885316 1.661587 0.000000 0.000000 0.000000 -1.829693 -0.057897 0.488978 0.998376 0.277213 0.422873 0.000000 0.000000 0.000000 -1.266038 -0.457736 0.722718 -3.710581 -17.678608 -11.989764 21.474284 -21.677253 -59.834356 -6.074726 -23.471250 -5.726997 0.000000 0.000000 0.000000 -2.298228 0.298421 0.507606 6.266246 11.343806 8.663733 3.434610 25.212218 55.275406 2.009873 22.896587 11.492198 0.000000 0.000000 0.000000 
-8.898201 92.656059 8.838198 0.000000 0.000000 0.000000 -2.289379 -6.801027 -0.246043 -13.608049 3.712671 11.036836 31.174448 -2.382860 -3.162898 -10.947513 7.054758 -7.519640 0.000000 0.000000 0.000000 -2.856699 -5.776392 -0.211491 -18.897926 5.162339 -5.078393 39.207369 -5.415940 -0.531986 -8.889314 2.499420 6.179798 0.000000 0.000000 0.000000 -2.753653 -6.306387 -0.145671 -0.766102 -0.060726 -0.082585 3.370077 0.814489 1.806000 0.483282 -1.795486 1.709738 0.000000 0.000000 0.000000 -1.765640 0.054659 0.438041 0.978498 0.292585 0.398696 0.000000 0.000000 0.000000 -1.065869 -0.351412 0.622485 -3.717792 -18.019127 -11.997197 21.146527 -21.528801 -59.687534 -6.129437 -24.115363 -6.059072 0.000000 0.000000 0.000000 -2.140240 0.433514 0.541031 6.531513 11.593371 8.132723 3.288371 25.627563 55.125111 2.078807 22.804938 11.112451 0.000000 0.000000 0.000000 
-8.771927 92.656937 8.641340 0.000000 0.000000 0.000000 -2.072065 -7.247039 -0.270134 -14.017820 3.873894 10.980991 31.426954 -2.235641 -2.981241 -10.843076 7.126241 -7.564037 0.000000 0.000000 0.000000 -2.692023 -6.100722 -0.252048 -19.147751 5.682111 -4.668508 39.023985 -5.346186 -0.959225 -9.660879 2.841631 5.193913 0.000000 0.000000 0.000000 -2.611012 -6.743051 -0.194677 -0.783191 -0.048863 -0.071164 3.509635 1.139909 1.733648 0.750045 -1.715379 1.735333 0.000000 0.000000 0.000000 -1.672292 0.156368 0.398384 0.967438 0.314377 0.384169 0.000000 0.000000 0.000000 -0.880604 -0.259556 0.508778 -3.724213 -18.429700 -11.956129 20.730671 -21.398458 -59.504670 -6.110032 -24.652716 -6.338410 0.000000 0.000000 0.000000 -1.962542 0.550297 0.575773 6.878256 12.042926 7.568961 3.086803 26.129307 55.024762 2.227568 22.756896 10.554906 0.000000 0.000000 0.000000 
-8.597010 92.630028 8.314583 0.000000 0.000000 0.000000 -1.791957 -7.836338 -0.471337 -14.647848 4.167331 11.177635 31.993999 -2.036712 -2.783689 -11.207850 7.220726 -7.662045 0.000000 0.000000 0.000000 -2.413519 -6.708144 -0.450959 -19.280133 6.173982 -3.997953 38.172961 -5.362051 -1.261779 -10.780586 3.084390 4.473909 0.000000 0.000000 0.000000 -2.372607 -7.322210 -0.418293 -0.795655 -0.027598 -0.076988 3.669820 1.394173 1.713518 1.093359 -1.666313 1.727774 0.000000 0.000000 0.000000 -1.505587 0.226437 0.360807 0.960027 0.340121 0.396594 0.000000 0.000000 0.000000 -0.703961 -0.198153 0.384071 -3.714786 -18.878627 -11.842291 20.056188 -21.158162 -59.354194 -6.003432 -24.916709 -6.501215 0.000000 0.000000 0.000000 -1.819397 0.626196 0.595132 7.279851 12.693842 6.965884 2.653030 26.728284 55.124708 2.483701 22.685392 9.740130 0.000000 0.000000 0.000000 
-8.410810 92.597237 7.894682 0.000000 0.000000 0.000000 -1.437418 -8.625838 -0.904901 -15.609875 4.707164 11.753524 32.975603 -1.731504 -2.604417 -12.111290 7.433743 -7.697331 0.000000 0.000000 0.000000 -2.023841 -7.552267 -0.873851 -19.681964 6.576008 -3.100999 36.935884 -5.399197 -1.335284 -11.432387 3.351142 4.154310 0.000000 0.000000 0.000000 -2.003172 -8.087036 -0.853718 -0.799630 -0.013912 -0.095079 3.854908 1.530630 1.785478 1.474729 -1.657959 1.693296 0.000000 0.000000 0.000000 -1.254492 0.253477 0.316460 0.953503 0.367733 0.450041 0.000000 0.000000 0.000000 -0.525084 -0.173780 0.249839 -3.680512 -19.323264 -11.665494 18.990624 -20.638084 -59.293849 -5.812976 -24.875482 -6.500353 0.000000 0.000000 0.000000 -1.745113 0.652963 0.588361 7.697045 13.544181 6.298300 1.811459 27.477551 55.547709 2.848786 22.563412 8.625603 0.000000 0.000000 0.000000 
-8.323847 92.554695 7.427692 0.000000 0.000000 0.000000 -1.019900 -9.600323 -1.547913 -16.907146 5.420557 12.712376 34.365318 -1.249907 -2.402114 -13.350184 7.870778 -7.536526 0.000000 0.000000 0.000000 -1.559276 -8.633258 -1.513407 -20.686963 6.836273 -2.071240 35.765876 -5.373023 -1.083991 -10.552178 3.682876 4.224673 0.000000 0.000000 0.000000 -1.533422 -9.044087 -1.476323 -0.796386 -0.014076 -0.108393 4.108211 1.576672 1.899126 1.884588 -1.682416 1.640077 0.000000 0.000000 0.000000 -0.955760 0.239691 0.268713 0.946667 0.399003 0.549699 0.000000 0.000000 0.000000 -0.335579 -0.188307 0.115312 -3.631166 -19.741600 -11.440312 17.586735 -19.739928 -59.355949 -5.610256 -24.710526 -6.339936 0.000000 0.000000 0.000000 -1.706996 0.627423 0.553697 8.080867 14.541715 5.589237 0.660009 28.374028 56.207136 3.323373 22.591834 7.220419 0.000000 0.000000 0.000000 
-8.379805 92.475319 6.966656 0.000000 0.000000 0.000000 -0.578704 -10.789563 -2.345945 -18.442665 6.081117 13.950410 36.169116 -0.630402 -2.085667 -14.888091 8.498011 -7.269177 0.000000 0.000000 0.000000 -1.082206 -9.905531 -2.306273 -22.588503 7.052601 -0.969701 35.600172 -5.204542 -0.549164 -8.483784 4.050701 4.443447 0.000000 0.000000 0.000000 -1.032746 -10.203620 -2.229818 -0.781210 -0.030284 -0.110214 4.447137 1.580624 1.941897 2.304109 -1.734463 1.568971 0.000000 0.000000 0.000000 -0.643520 0.191997 0.226238 0.937682 0.430813 0.689643 0.000000 0.000000 0.000000 -0.107326 -0.240499 -0.012698 -3.599217 -20.141418 -11.236702 16.108253 -18.437744 -59.512982 -5.457275 -24.930891 -6.099174 0.000000 0.000000 0.000000 -1.626459 0.561585 0.487599 8.393435 15.603149 4.915520 -0.576187 29.333876 56.896736 3.882925 22.975698 5.576635 0.000000 0.000000 0.000000 
-8.601316 92.279541 6.533751 0.000000 0.000000 0.000000 -0.169802 -12.252381 -3.223315 -20.024486 6.313768 15.332308 38.457646 -0.088807 -1.571388 -16.861082 9.106926 -7.147204 0.000000 0.000000 0.000000 -0.684764 -11.317057 -3.158116 -25.270279 7.294663 0.143323 36.746158 -4.869991 0.266562 -6.279724 4.555231 4.891442 0.000000 0.000000 0.000000 -0.564639 -11.561327 -3.055285 -0.774961 -0.048047 -0.105165 4.897525 1.596480 1.843652 2.715000 -1.795620 1.477880 0.000000 0.000000 0.000000 -0.385409 0.126197 0.200136 0.941931 0.465452 0.853120 0.000000 0.000000 0.000000 0.162622 -0.324391 -0.124794 -3.605526 -20.539374 -11.098890 14.945571 -16.895748 -59.650986 -5.393586 -26.076153 -5.844162 0.000000 0.000000 0.000000 -1.450674 0.473107 0.403007 8.613219 16.640537 4.352680 -1.736818 30.175673 57.485372 4.521401 23.773744 3.764778 0.000000 0.000000 0.000000 
-9.021900 91.870880 6.153601 0.000000 0.000000 0.000000 0.123082 -13.903668 -4.171772 -21.677386 5.963738 16.825162 41.404019 0.315009 -0.905864 -19.077278 9.599524 -7.284687 0.000000 0.000000 0.000000 -0.395034 -12.887044 -4.047184 -28.166824 7.372078 1.056312 38.703544 -4.257345 1.455138 -4.797297 5.412094 6.237289 0.000000 0.000000 0.000000 -0.195893 -13.025905 -3.935203 -0.775269 -0.049951 -0.095793 5.484665 1.640930 1.635025 3.108744 -1.845745 1.369841 0.000000 0.000000 0.000000 -0.186038 0.049534 0.187851 0.977872 0.503286 1.024455 0.000000 0.000000 0.000000 0.457632 -0.425055 -0.209387 -3.635500 -20.918629 -11.006732 14.305566 -15.364306 -59.638295 -5.429893 -28.392982 -5.640565 0.000000 0.000000 0.000000 -1.197880 0.369095 0.314507 8.717565 17.523984 3.940450 -2.774717 30.602984 57.974734 5.264229 24.975861 1.818852 0.000000 0.000000 0.000000 
-9.569139 91.249496 5.891214 0.000000 0.000000 0.000000 0.233401 -15.547158 -5.204244 -23.405417 5.238811 18.494187 45.053758 0.616605 -0.251499 -21.230642 9.998461 -7.593770 0.000000 0.000000 0.000000 -0.228848 -14.502954 -5.022993 -31.002075 7.239639 1.485579 41.084322 -3.211991 2.930838 -4.132822 7.033185 8.985597 0.000000 0.000000 0.000000 0.033490 -14.458250 -4.870293 -0.787354 -0.034610 -0.092559 6.127171 1.688037 1.408678 3.475691 -1.884978 1.255511 0.000000 0.000000 0.000000 0.000997 -0.042104 0.168889 1.061967 0.536171 1.180396 0.000000 0.000000 0.000000 0.769653 -0.524839 -0.265900 -3.684806 -21.257763 -10.970084 14.238278 -14.189971 -59.331634 -5.551234 -31.735893 -5.522023 0.000000 0.000000 0.000000 -0.925175 0.257925 0.225919 8.716124 18.146062 3.703103 -3.835003 30.403016 58.571987 6.088708 26.426041 -0.212092 0.000000 0.000000 0.000000 
